<svg xmlns="http://www.w3.org/2000/svg" width="460" height="320" viewBox="0, 0, 460, 320"><path d="M221.899 222.097h85.687v6.553h-85.687zM134.777 4.5h259.929c3.754 0 6.825 3.072 6.825 6.825v167.246c0 3.754-3.071 6.825-6.825 6.825H290.638v10.616c0 12.5-1.771 9.771 8.492 16.709l8.49 5.742h-85.757l8.49-5.742c10.263-6.938 8.492-4.209 8.492-16.709v-10.616H134.777c-3.753 0-6.825-3.071-6.825-6.825V11.325c0-3.753 3.072-6.825 6.825-6.825zm129.965 4.506a2.475 2.475 0 1 1 0 4.95 2.475 2.475 0 0 1 0-4.95z" fill-opacity="0" stroke="#FFF" stroke-width="4" stroke-linecap="round" stroke-linejoin="round"/><path d="M221.399 221.597h85.687v6.553h-85.687zM134.277 4h259.929c3.754 0 6.825 3.072 6.825 6.825v167.246c0 3.754-3.071 6.825-6.825 6.825H290.138v10.616c0 12.5-1.771 9.771 8.492 16.709l8.49 5.742h-85.757l8.49-5.742c10.263-6.938 8.492-4.209 8.492-16.709v-10.616H134.277c-3.753 0-6.825-3.071-6.825-6.825V10.825c0-3.753 3.072-6.825 6.825-6.825zm129.965 4.506a2.475 2.475 0 1 1 0 4.95 2.475 2.475 0 0 1 0-4.95" fill="#393939"/><path d="M140.177 16.498h248.13v151.903h-248.13z" fill="#FFF"/><path d="M182.175 35.007h165.381c1.43 0 2.598 1.17 2.598 2.597v44.941a2.604 2.604 0 0 1-2.598 2.596H182.175a2.604 2.604 0 0 1-2.598-2.596V37.604a2.605 2.605 0 0 1 2.598-2.597" fill="#5D9CEC"/><path d="M182.175 89.863h47.721a2.606 2.606 0 0 1 2.598 2.598v26.398a2.605 2.605 0 0 1-2.598 2.598h-47.721a2.604 2.604 0 0 1-2.598-2.598V92.461a2.605 2.605 0 0 1 2.598-2.598" fill="#E4695D"/><path d="M241.07 89.863h47.721a2.605 2.605 0 0 1 2.598 2.598v26.398a2.604 2.604 0 0 1-2.598 2.598H241.07a2.605 2.605 0 0 1-2.598-2.598V92.461a2.606 2.606 0 0 1 2.598-2.598" fill="#FFCE53"/><path d="M299.965 89.863h47.722a2.606 2.606 0 0 1 2.598 2.598v26.398a2.605 2.605 0 0 1-2.598 2.598h-47.722a2.605 2.605 0 0 1-2.598-2.598V92.461a2.606 2.606 0 0 1 2.598-2.598" fill="#48CFAE"/><path d="M238.472 127.739h52.917v3.053h-52.917zM238.472 134.935h52.917v3.054h-52.917zM238.472 142.13h39.096v3.053h-39.096zM238.472 149.326h52.917v3.054h-52.917zM238.472 156.522h28.886v3.054h-28.886zM297.367 127.739h52.918v3.053h-52.918zM297.367 134.935h47.096v3.054h-47.096zM297.367 142.13h52.918v3.053h-52.918zM297.367 149.326h52.918v3.054h-52.918zM297.367 156.522h21.342v3.054h-21.342zM179.134 156.522h52.918v3.054h-52.918zM179.134 149.328h39.096v3.053h-39.096zM179.134 142.132h52.918v3.053h-52.918zM179.134 134.935h48.6v3.054h-48.6zM179.134 127.739h36.478v3.053h-36.478z" fill="#DADADA"/><path d="M9.509 279.474h240.538a2.852 2.852 0 0 1 2.842 2.842v6.508a2.853 2.853 0 0 1-2.842 2.842H9.509a2.852 2.852 0 0 1-2.842-2.842v-6.508a2.85 2.85 0 0 1 2.842-2.842zm20.566-134.317h199.408c3.574 0 6.5 2.933 6.5 6.5v118.277c0 3.567-2.935 6.5-6.5 6.5H30.075c-3.567 0-6.502-2.925-6.502-6.5V151.657c0-3.576 2.927-6.5 6.502-6.5zm99.704 4.291a2.358 2.358 0 1 1-.001 4.715 2.358 2.358 0 0 1 .001-4.715z" fill-opacity="0" stroke="#FFF" stroke-width="4" stroke-linejoin="round"/><path d="M9.009 278.974h240.538a2.852 2.852 0 0 1 2.842 2.842v6.508a2.853 2.853 0 0 1-2.842 2.842H9.009a2.852 2.852 0 0 1-2.842-2.842v-6.508a2.85 2.85 0 0 1 2.842-2.842zm20.566-134.317h199.408c3.574 0 6.5 2.933 6.5 6.5v118.277c0 3.567-2.935 6.5-6.5 6.5H29.575c-3.567 0-6.502-2.925-6.502-6.5V151.157c0-3.576 2.927-6.5 6.502-6.5zm99.704 4.291a2.358 2.358 0 1 1-.001 4.715 2.358 2.358 0 0 1 .001-4.715" fill="#393939"/><path d="M33.389 157.32h191.777v108.313H33.389z" fill="#FFF"/><path d="M65.785 181.759h127.229c1.099 0 1.997.898 1.997 1.997v34.571c0 1.1-.898 1.999-1.997 1.999H65.785c-1.1 0-1.998-.899-1.998-1.999v-34.571c0-1.099.898-1.997 1.998-1.997" fill="#5D9CEC"/><path d="M65.785 223.959h36.713c1.099 0 1.997.9 1.997 1.999v20.308a2.003 2.003 0 0 1-1.997 1.998H65.785c-1.1 0-1.998-.899-1.998-1.998v-20.308c0-1.099.898-1.999 1.998-1.999" fill="#E4695D"/><path d="M111.092 223.959h36.712c1.101 0 1.999.9 1.999 1.999v20.308a2.003 2.003 0 0 1-1.999 1.998h-36.712a2.003 2.003 0 0 1-1.997-1.998v-20.308c0-1.099.898-1.999 1.997-1.999" fill="#FFCE53"/><path d="M156.4 223.959h36.713c1.099 0 1.998.9 1.998 1.999v20.308a2.004 2.004 0 0 1-1.998 1.998H156.4a2.005 2.005 0 0 1-1.999-1.998v-20.308c0-1.099.9-1.999 1.999-1.999" fill="#48CFAE"/><path d="M109.095 253.096h40.71v2.348h-40.71zM109.095 258.633h40.71v2.349h-40.71zM154.403 253.096h40.708v2.348h-40.708zM154.403 258.633h36.231v2.349h-36.231zM63.447 258.633h37.387v2.349H63.447zM63.447 253.097h28.062v2.349H63.447z" fill="#DADADA"/><path d="M448.155 110.484h-96.359c-3.396 0-6.176 2.79-6.176 6.177v129.344c0 3.387 2.789 6.178 6.176 6.178h96.359c3.387 0 6.178-2.78 6.178-6.178V116.661c0-3.397-2.781-6.177-6.178-6.177zm-48.179 3.704a2.24 2.24 0 1 0-.002 4.482 2.24 2.24 0 0 0 .002-4.482z" fill-opacity="0" stroke="#FFF" stroke-width="4" stroke-linecap="round" stroke-linejoin="round"/><path d="M447.655 109.984h-96.359c-3.396 0-6.176 2.79-6.176 6.177v129.344c0 3.387 2.789 6.178 6.176 6.178h96.359c3.387 0 6.178-2.78 6.178-6.178V116.161c0-3.397-2.781-6.177-6.178-6.177zm-48.179 3.704a2.24 2.24 0 1 0-.002 4.482 2.24 2.24 0 0 0 .002-4.482" fill="#393939"/><path d="M356.504 121.98h85.944v117.704h-85.944z" fill="#FFF"/><path d="M364.467 135.828h70.314c1.165 0 2.119.953 2.119 2.118v36.663a2.125 2.125 0 0 1-2.119 2.117h-70.314a2.125 2.125 0 0 1-2.119-2.117v-36.663c0-1.165.954-2.118 2.119-2.118" fill="#5D9CEC"/><path d="M364.467 180.579h31.327c1.165 0 2.119.954 2.119 2.119v21.536a2.126 2.126 0 0 1-2.119 2.119h-31.327a2.126 2.126 0 0 1-2.119-2.119v-21.536c0-1.165.954-2.119 2.119-2.119" fill="#E4695D"/><path d="M403.454 180.579h31.327c1.165 0 2.119.954 2.119 2.119v21.536a2.126 2.126 0 0 1-2.119 2.119h-31.327a2.126 2.126 0 0 1-2.119-2.119v-21.536c0-1.165.954-2.119 2.119-2.119" fill="#FFCE53"/><path d="M401.337 211.476h35.565v2.491h-35.565zM401.337 217.347h35.565v2.491h-35.565zM401.337 223.218h26.276v2.491h-26.276zM401.337 229.089h35.565v2.49h-35.565zM401.337 234.96h19.413v2.49h-19.413zM362.051 234.96h35.565v2.49h-35.565zM362.051 229.089h26.276v2.49h-26.276zM362.051 223.218h35.565v2.491h-35.565zM362.051 217.349h32.664v2.49h-32.664zM362.051 211.478h24.517v2.49h-24.517z" fill="#DADADA"/><path d="M383.707 218.88h-42.84c-3.754 0-6.825 3.121-6.825 6.827v83.966c0 3.706 3.121 6.827 6.825 6.827h42.84c3.706 0 6.827-3.072 6.827-6.827v-83.966c0-3.755-3.072-6.827-6.827-6.827z" fill-opacity="0" stroke="#FFF" stroke-width="4" stroke-linecap="round" stroke-linejoin="round"/><path d="M383.207 218.38h-42.84c-3.754 0-6.825 3.121-6.825 6.827v83.966c0 3.706 3.121 6.827 6.825 6.827h42.84c3.706 0 6.827-3.072 6.827-6.827v-83.966c0-3.755-3.072-6.827-6.827-6.827" fill="#393939"/><path d="M361.787 302.169a3.95 3.95 0 1 0 0 7.9 3.95 3.95 0 0 0 0-7.9M370.535 226.568h-17.494a1.16 1.16 0 0 0-1.157 1.156c0 .637.52 1.157 1.157 1.157h17.494a1.158 1.158 0 0 0 0-2.313M338.835 233.273h45.906v60.917h-45.906z" fill="#FFF"/><path d="M379.418 238.459h-35.442a.948.948 0 0 0-.945.946v16.363c0 .521.425.946.945.946h35.442c.52 0 .944-.425.944-.946v-16.363a.947.947 0 0 0-.944-.946" fill="#5D9CEC"/><path d="M378.201 259.717H344.96c-1.061 0-1.929.87-1.929 1.93v17.065c0 1.059.871 1.929 1.929 1.929h33.241c1.06 0 1.93-.868 1.93-1.929v-17.065c0-1.061-.868-1.93-1.93-1.93" fill="#E4695D"/><path d="M343.03 288.583h32.664v2.22H343.03zM343.03 283.351h24.517v2.22H343.03z" fill="#DADADA"/><path d="M399.476 112.142a3.948 3.948 0 0 0-3.949 3.949 3.949 3.949 0 1 0 7.899 0 3.95 3.95 0 0 0-3.95-3.949M129.279 147.375a3.95 3.95 0 1 0 0 7.9 3.95 3.95 0 1 0 0-7.9M264.242 6.685a3.95 3.95 0 1 0-.001 7.899 3.95 3.95 0 0 0 .001-7.899" fill="#FFF"/></svg>